<svg width="100" height="100" viewBox="0 0 100 100" fill="none" xmlns="http://www.w3.org/2000/svg">
<path d="M41.6666 73.7542H25.875C10.0416 73.7542 5.20831 68.9209 5.20831 53.0876V28.0876C5.20831 12.2542 10.0416 7.4209 25.875 7.4209H69.75C85.5833 7.4209 90.4166 12.2542 90.4166 28.0876C90.4166 29.7959 89 31.2126 87.2916 31.2126C85.5833 31.2126 84.1666 29.7959 84.1666 28.0876C84.1666 15.8376 82 13.6709 69.75 13.6709H25.875C13.625 13.6709 11.4583 15.8376 11.4583 28.0876V53.0876C11.4583 65.3376 13.625 67.5042 25.875 67.5042H41.6666C43.375 67.5042 44.7916 68.9209 44.7916 70.6292C44.7916 72.3376 43.375 73.7542 41.6666 73.7542Z" fill="#FFFEFC" stroke="#FFFEFC" stroke-width="0.6"/>
<path d="M41.6666 92.5874C39.9583 92.5874 38.5416 91.1707 38.5416 89.4624V70.5874C38.5416 68.8791 39.9583 67.4624 41.6666 67.4624C43.375 67.4624 44.7916 68.8791 44.7916 70.5874V89.4624C44.7916 91.2124 43.375 92.5874 41.6666 92.5874ZM41.6666 57.0833H8.33331C6.62498 57.0833 5.20831 55.6666 5.20831 53.9583C5.20831 52.2499 6.62498 50.8333 8.33331 50.8333H41.6666C43.375 50.8333 44.7916 52.2499 44.7916 53.9583C44.7916 55.6666 43.375 57.0833 41.6666 57.0833Z" fill="#FFFEFC" stroke="#FFFEFC" stroke-width="0.6"/>
<path d="M41.6666 92.5792H28.0833C26.375 92.5792 24.9583 91.1625 24.9583 89.4542C24.9583 87.7458 26.375 86.3292 28.0833 86.3292H41.6666C43.375 86.3292 44.7916 87.7458 44.7916 89.4542C44.7916 91.1625 43.375 92.5792 41.6666 92.5792ZM79.3333 92.5833H64.5416C53 92.5833 49.0833 88.6667 49.0833 77.125V53.3333C49.0833 41.7917 53 37.875 64.5416 37.875H79.3333C90.875 37.875 94.7917 41.7917 94.7917 53.3333V77.125C94.7917 88.7083 90.875 92.5833 79.3333 92.5833V92.5833ZM64.5416 44.125C56.375 44.125 55.3333 45.1667 55.3333 53.3333V77.125C55.3333 85.2917 56.375 86.3333 64.5416 86.3333H79.3333C87.5 86.3333 88.5417 85.2917 88.5417 77.125V53.3333C88.5417 45.1667 87.5 44.125 79.3333 44.125H64.5416V44.125Z" fill="#FFFEFC" stroke="#FFFEFC" stroke-width="0.6"/>
<path d="M72.0834 79.0376C71 79.0376 69.9167 78.6209 69.125 77.8293C68.7492 77.4461 68.452 76.9931 68.25 76.4959C68.0417 75.9542 67.9167 75.4126 67.9167 74.8709C67.9167 73.7876 68.375 72.7042 69.125 71.9542C70.0834 70.9959 71.5417 70.5376 72.9167 70.7876L73.6667 71.0376C73.9167 71.1626 74.1667 71.2876 74.375 71.4126C74.9459 71.7924 75.4152 72.3061 75.742 72.9089C76.0688 73.5117 76.2432 74.1853 76.25 74.8709C76.25 75.4126 76.125 75.9542 75.9167 76.4959C75.7084 76.9959 75.4167 77.4543 75.0417 77.8293C74.8485 78.0315 74.6232 78.2004 74.375 78.3292C74.154 78.4923 73.9166 78.632 73.6667 78.7459C73.4167 78.8293 73.1667 78.9126 72.9167 78.9542C72.625 79.0376 72.375 79.0376 72.0834 79.0376Z" fill="#FFFEFC" stroke="#FFFEFC" stroke-width="0.6"/>
</svg>
