<svg width="41" height="174" viewBox="0 0 41 174" fill="none" xmlns="http://www.w3.org/2000/svg">
<path d="M3 171C3 162.597 38 162.597 38 154.194C38 145.791 3 145.791 3 137.388C3 128.985 38 128.985 38 120.602C38 112.199 3 112.199 3 103.816C3 95.4126 38 95.4126 38 87.0296C38 78.6264 3 78.6264 3 70.2239C3 61.8208 38 61.8208 38 53.4176C38 45.0151 3 45.0151 3 36.612C3 28.2088 38 28.2088 38 19.8057C38 11.4031 3 11.4031 3 2.99999" stroke="#BD871F" stroke-width="5" stroke-miterlimit="10" stroke-linecap="round"/>
</svg>
