<svg width="525" height="41" viewBox="0 0 525 41" fill="none" xmlns="http://www.w3.org/2000/svg">
<path d="M3 3C28.9591 3 28.9591 38 54.9183 38C80.8774 38 80.8774 3 106.837 3C132.796 3 132.796 38 158.694 38C184.654 38 184.654 3 210.551 3C236.511 3 236.511 38 262.409 38C288.368 38 288.368 3 314.326 3C340.286 3 340.286 38 366.246 38C392.203 38 392.203 3 418.163 3C444.123 3 444.123 38 470.082 38C496.04 38 496.04 3 522 3" stroke="#BD871F" stroke-width="5" stroke-miterlimit="10" stroke-linecap="round"/>
</svg>
